<svg width="50" height="49" viewBox="0 0 50 49" fill="none" xmlns="http://www.w3.org/2000/svg">
<path fill-rule="evenodd" clip-rule="evenodd" d="M31.8254 12.8764C31.6448 12.9512 31.4756 13.0619 31.3288 13.2087L24.183 20.3546C23.585 20.9526 23.585 21.9221 24.183 22.5201C24.781 23.1181 25.7505 23.1181 26.3485 22.5201L30.8803 17.9883V26.5415C30.8803 28.3013 30.1812 29.9891 28.9369 31.2335C27.6925 32.4778 26.0047 33.1769 24.2449 33.1769H9.95325C9.10756 33.1769 8.422 33.8625 8.422 34.7082C8.422 35.5539 9.10756 36.2394 9.95325 36.2394H24.2449C26.817 36.2394 29.2837 35.2177 31.1024 33.399C32.9211 31.5803 33.9428 29.1136 33.9428 26.5415V17.9883L38.4747 22.5201C39.0726 23.1181 40.0422 23.1181 40.6402 22.5201C41.2382 21.9221 41.2382 20.9526 40.6402 20.3546L33.4943 13.2087C33.0432 12.7576 32.3805 12.6468 31.8254 12.8764Z" fill="url(#paint0_linear_20_105)"/>
<defs>
<linearGradient id="paint0_linear_20_105" x1="9.5256" y1="20.4662" x2="41.0914" y2="20.2846" gradientUnits="userSpaceOnUse">
<stop stop-color="#FB047B"/>
<stop offset="1" stop-color="#130EFF"/>
</linearGradient>
</defs>
</svg>
