<svg width="534" height="1010" viewBox="0 0 534 1010" fill="none" xmlns="http://www.w3.org/2000/svg">
<mask id="mask0_2_12" style="mask-type:alpha" maskUnits="userSpaceOnUse" x="0" y="0" width="534" height="1010">
<rect width="533.962" height="1010" fill="#C4C4C4"/>
</mask>
<g mask="url(#mask0_2_12)">
<g opacity="0.4">
<g opacity="0.1">
<line x1="162.465" y1="138.69" x2="162.465" y2="262.867" stroke="white" stroke-width="2.06962"/>
<line x1="37.2532" y1="261.832" x2="161.43" y2="261.832" stroke="white" stroke-width="2.06962"/>
<line x1="37.2532" y1="139.725" x2="161.43" y2="139.725" stroke="white" stroke-width="2.06962"/>
</g>
<path d="M158.326 139.725H162.465V143.864" stroke="white" stroke-width="2.06962"/>
<path d="M162.465 257.693V261.832H158.326" stroke="white" stroke-width="2.06962"/>
<g opacity="0.1">
<line x1="162.465" y1="260.797" x2="162.465" y2="384.975" stroke="white" stroke-width="2.06962"/>
<line x1="37.2532" y1="383.94" x2="161.43" y2="383.94" stroke="white" stroke-width="2.06962"/>
<line x1="37.2532" y1="261.832" x2="161.43" y2="261.832" stroke="white" stroke-width="2.06962"/>
</g>
<path d="M158.326 261.832H162.465V265.972" stroke="white" stroke-width="2.06962"/>
<path d="M162.465 379.801V383.94H158.326" stroke="white" stroke-width="2.06962"/>
<g opacity="0.1">
<line x1="162.465" y1="382.905" x2="162.465" y2="507.082" stroke="white" stroke-width="2.06962"/>
<line x1="37.2532" y1="506.048" x2="161.43" y2="506.048" stroke="white" stroke-width="2.06962"/>
<line x1="37.2532" y1="383.94" x2="161.43" y2="383.94" stroke="white" stroke-width="2.06962"/>
</g>
<path d="M158.326 383.94H162.465V388.079" stroke="white" stroke-width="2.06962"/>
<path d="M162.465 501.908V506.047H158.326" stroke="white" stroke-width="2.06962"/>
<g opacity="0.1">
<line x1="162.465" y1="505.013" x2="162.465" y2="629.19" stroke="white" stroke-width="2.06962"/>
<line x1="37.2532" y1="628.155" x2="161.43" y2="628.155" stroke="white" stroke-width="2.06962"/>
<line x1="37.2532" y1="506.047" x2="161.43" y2="506.047" stroke="white" stroke-width="2.06962"/>
</g>
<path d="M158.326 506.048H162.465V510.187" stroke="white" stroke-width="2.06962"/>
<path d="M162.465 624.016V628.155H158.326" stroke="white" stroke-width="2.06962"/>
<g opacity="0.1">
<line x1="162.465" y1="627.12" x2="162.465" y2="751.298" stroke="white" stroke-width="2.06962"/>
<line x1="37.2532" y1="750.263" x2="161.43" y2="750.263" stroke="white" stroke-width="2.06962"/>
<line x1="37.2532" y1="628.155" x2="161.43" y2="628.155" stroke="white" stroke-width="2.06962"/>
</g>
<path d="M158.326 628.155H162.465V632.294" stroke="white" stroke-width="2.06962"/>
<path d="M162.465 746.124V750.263H158.326" stroke="white" stroke-width="2.06962"/>
<g opacity="0.1">
<line x1="162.465" y1="749.228" x2="162.465" y2="873.405" stroke="white" stroke-width="2.06962"/>
<line x1="37.2532" y1="872.37" x2="161.43" y2="872.37" stroke="white" stroke-width="2.06962"/>
<line x1="37.2532" y1="750.263" x2="161.43" y2="750.263" stroke="white" stroke-width="2.06962"/>
</g>
<path d="M158.326 750.263H162.465V754.402" stroke="white" stroke-width="2.06962"/>
<path d="M162.465 868.231V872.37H158.326" stroke="white" stroke-width="2.06962"/>
<g opacity="0.1">
<line x1="162.465" y1="871.335" x2="162.465" y2="995.513" stroke="white" stroke-width="2.06962"/>
<line x1="37.2532" y1="872.37" x2="161.43" y2="872.37" stroke="white" stroke-width="2.06962"/>
</g>
<path d="M158.326 872.37H162.465V876.51" stroke="white" stroke-width="2.06962"/>
<g opacity="0.1">
<line x1="161.43" y1="139.725" x2="285.608" y2="139.725" stroke="white" stroke-width="2.06962"/>
</g>
<path d="M162.465 135.585V139.725H166.604" stroke="white" stroke-width="2.06962"/>
<path d="M286.642 135.585V139.725H282.503" stroke="white" stroke-width="2.06962"/>
<g opacity="0.1">
<line x1="162.465" y1="16.5823" x2="162.465" y2="140.76" stroke="white" stroke-width="2.06962"/>
<line x1="37.2532" y1="139.725" x2="161.43" y2="139.725" stroke="white" stroke-width="2.06962"/>
</g>
<path d="M162.465 135.585V139.725H158.326" stroke="white" stroke-width="2.06962"/>
<g opacity="0.1">
<line x1="162.465" y1="138.69" x2="162.465" y2="262.867" stroke="white" stroke-width="2.06962"/>
<line x1="286.642" y1="138.69" x2="286.642" y2="262.867" stroke="white" stroke-width="2.06962"/>
<line x1="161.43" y1="261.832" x2="285.608" y2="261.832" stroke="white" stroke-width="2.06962"/>
<line x1="161.43" y1="139.725" x2="285.608" y2="139.725" stroke="white" stroke-width="2.06962"/>
</g>
<path d="M166.604 139.725H162.465V143.864" stroke="white" stroke-width="2.06962"/>
<path d="M282.503 139.725H286.642V143.864" stroke="white" stroke-width="2.06962"/>
<path d="M162.465 257.693V261.832H166.604" stroke="white" stroke-width="2.06962"/>
<path d="M286.642 257.693V261.832H282.503" stroke="white" stroke-width="2.06962"/>
<g opacity="0.1">
<line x1="162.465" y1="260.797" x2="162.465" y2="384.975" stroke="white" stroke-width="2.06962"/>
<line x1="286.642" y1="260.797" x2="286.642" y2="384.975" stroke="white" stroke-width="2.06962"/>
<line x1="161.43" y1="383.94" x2="285.608" y2="383.94" stroke="white" stroke-width="2.06962"/>
<line x1="161.43" y1="261.832" x2="285.608" y2="261.832" stroke="white" stroke-width="2.06962"/>
</g>
<path d="M166.604 261.832H162.465V265.972" stroke="white" stroke-width="2.06962"/>
<path d="M282.503 261.832H286.642V265.972" stroke="white" stroke-width="2.06962"/>
<path d="M162.465 379.801V383.94H166.604" stroke="white" stroke-width="2.06962"/>
<path d="M286.642 379.801V383.94H282.503" stroke="white" stroke-width="2.06962"/>
<g opacity="0.1">
<line x1="162.465" y1="382.905" x2="162.465" y2="507.082" stroke="white" stroke-width="2.06962"/>
<line x1="286.642" y1="382.905" x2="286.642" y2="507.082" stroke="white" stroke-width="2.06962"/>
<line x1="161.43" y1="506.048" x2="285.608" y2="506.048" stroke="white" stroke-width="2.06962"/>
<line x1="161.43" y1="383.94" x2="285.608" y2="383.94" stroke="white" stroke-width="2.06962"/>
</g>
<path d="M166.604 383.94H162.465V388.079" stroke="white" stroke-width="2.06962"/>
<path d="M282.503 383.94H286.642V388.079" stroke="white" stroke-width="2.06962"/>
<path d="M162.465 501.908V506.047H166.604" stroke="white" stroke-width="2.06962"/>
<path d="M286.642 501.908V506.047H282.503" stroke="white" stroke-width="2.06962"/>
<g opacity="0.1">
<line x1="162.465" y1="505.013" x2="162.465" y2="629.19" stroke="white" stroke-width="2.06962"/>
<line x1="286.642" y1="505.013" x2="286.642" y2="629.19" stroke="white" stroke-width="2.06962"/>
<line x1="161.43" y1="628.155" x2="285.608" y2="628.155" stroke="white" stroke-width="2.06962"/>
<line x1="161.43" y1="506.047" x2="285.608" y2="506.047" stroke="white" stroke-width="2.06962"/>
</g>
<path d="M166.604 506.048H162.465V510.187" stroke="white" stroke-width="2.06962"/>
<path d="M282.503 506.048H286.642V510.187" stroke="white" stroke-width="2.06962"/>
<path d="M162.465 624.016V628.155H166.604" stroke="white" stroke-width="2.06962"/>
<path d="M286.642 624.016V628.155H282.503" stroke="white" stroke-width="2.06962"/>
<g opacity="0.1">
<line x1="162.465" y1="627.12" x2="162.465" y2="751.298" stroke="white" stroke-width="2.06962"/>
<line x1="286.642" y1="627.12" x2="286.642" y2="751.298" stroke="white" stroke-width="2.06962"/>
<line x1="161.43" y1="750.263" x2="285.608" y2="750.263" stroke="white" stroke-width="2.06962"/>
<line x1="161.43" y1="628.155" x2="285.608" y2="628.155" stroke="white" stroke-width="2.06962"/>
</g>
<path d="M166.604 628.155H162.465V632.294" stroke="white" stroke-width="2.06962"/>
<path d="M282.503 628.155H286.642V632.294" stroke="white" stroke-width="2.06962"/>
<path d="M162.465 746.124V750.263H166.604" stroke="white" stroke-width="2.06962"/>
<path d="M286.642 746.124V750.263H282.503" stroke="white" stroke-width="2.06962"/>
<g opacity="0.1">
<line x1="162.465" y1="749.228" x2="162.465" y2="873.405" stroke="white" stroke-width="2.06962"/>
<line x1="286.642" y1="749.228" x2="286.642" y2="873.405" stroke="white" stroke-width="2.06962"/>
<line x1="161.43" y1="872.37" x2="285.608" y2="872.37" stroke="white" stroke-width="2.06962"/>
<line x1="161.43" y1="750.263" x2="285.608" y2="750.263" stroke="white" stroke-width="2.06962"/>
</g>
<path d="M166.604 750.263H162.465V754.402" stroke="white" stroke-width="2.06962"/>
<path d="M282.503 750.263H286.642V754.402" stroke="white" stroke-width="2.06962"/>
<path d="M162.465 868.231V872.37H166.604" stroke="white" stroke-width="2.06962"/>
<path d="M286.642 868.231V872.37H282.503" stroke="white" stroke-width="2.06962"/>
<g opacity="0.1">
<line x1="162.465" y1="871.335" x2="162.465" y2="995.513" stroke="white" stroke-width="2.06962"/>
<line x1="286.642" y1="871.335" x2="286.642" y2="995.513" stroke="white" stroke-width="2.06962"/>
<line x1="161.43" y1="872.37" x2="285.608" y2="872.37" stroke="white" stroke-width="2.06962"/>
</g>
<path d="M166.604 872.37H162.465V876.51" stroke="white" stroke-width="2.06962"/>
<path d="M282.503 872.37H286.642V876.51" stroke="white" stroke-width="2.06962"/>
<g opacity="0.1">
<line x1="286.642" y1="16.5823" x2="286.642" y2="140.76" stroke="white" stroke-width="2.06962"/>
<line x1="285.608" y1="139.725" x2="409.785" y2="139.725" stroke="white" stroke-width="2.06962"/>
</g>
<path d="M286.642 135.585V139.725H290.782" stroke="white" stroke-width="2.06962"/>
<path d="M410.82 135.585V139.725H406.68" stroke="white" stroke-width="2.06962"/>
<g opacity="0.1">
<line x1="286.642" y1="138.69" x2="286.642" y2="262.867" stroke="white" stroke-width="2.06962"/>
<line x1="410.82" y1="138.69" x2="410.82" y2="262.867" stroke="white" stroke-width="2.06962"/>
<line x1="285.608" y1="261.832" x2="409.785" y2="261.832" stroke="white" stroke-width="2.06962"/>
<line x1="285.608" y1="139.725" x2="409.785" y2="139.725" stroke="white" stroke-width="2.06962"/>
</g>
<path d="M290.782 139.725H286.642V143.864" stroke="white" stroke-width="2.06962"/>
<path d="M406.68 139.725H410.82V143.864" stroke="white" stroke-width="2.06962"/>
<path d="M286.642 257.693V261.832H290.782" stroke="white" stroke-width="2.06962"/>
<path d="M410.82 257.693V261.832H406.68" stroke="white" stroke-width="2.06962"/>
<g opacity="0.1">
<line x1="286.642" y1="260.797" x2="286.642" y2="384.975" stroke="white" stroke-width="2.06962"/>
<line x1="410.82" y1="260.797" x2="410.82" y2="384.975" stroke="white" stroke-width="2.06962"/>
<line x1="285.608" y1="383.94" x2="409.785" y2="383.94" stroke="white" stroke-width="2.06962"/>
<line x1="285.608" y1="261.832" x2="409.785" y2="261.832" stroke="white" stroke-width="2.06962"/>
</g>
<path d="M290.782 261.832H286.642V265.972" stroke="white" stroke-width="2.06962"/>
<path d="M406.68 261.832H410.82V265.972" stroke="white" stroke-width="2.06962"/>
<path d="M286.642 379.801V383.94H290.782" stroke="white" stroke-width="2.06962"/>
<path d="M410.82 379.801V383.94H406.68" stroke="white" stroke-width="2.06962"/>
<g opacity="0.1">
<line x1="286.642" y1="382.905" x2="286.642" y2="507.082" stroke="white" stroke-width="2.06962"/>
<line x1="410.82" y1="382.905" x2="410.82" y2="507.082" stroke="white" stroke-width="2.06962"/>
<line x1="285.608" y1="506.048" x2="409.785" y2="506.048" stroke="white" stroke-width="2.06962"/>
<line x1="285.608" y1="383.94" x2="409.785" y2="383.94" stroke="white" stroke-width="2.06962"/>
</g>
<path d="M290.782 383.94H286.642V388.079" stroke="white" stroke-width="2.06962"/>
<path d="M406.68 383.94H410.82V388.079" stroke="white" stroke-width="2.06962"/>
<path d="M286.642 501.908V506.047H290.782" stroke="white" stroke-width="2.06962"/>
<path d="M410.82 501.908V506.047H406.68" stroke="white" stroke-width="2.06962"/>
<g opacity="0.1">
<line x1="286.642" y1="505.013" x2="286.642" y2="629.19" stroke="white" stroke-width="2.06962"/>
<line x1="410.82" y1="505.013" x2="410.82" y2="629.19" stroke="white" stroke-width="2.06962"/>
<line x1="285.608" y1="628.155" x2="409.785" y2="628.155" stroke="white" stroke-width="2.06962"/>
<line x1="285.608" y1="506.047" x2="409.785" y2="506.047" stroke="white" stroke-width="2.06962"/>
</g>
<path d="M290.782 506.048H286.642V510.187" stroke="white" stroke-width="2.06962"/>
<path d="M406.68 506.048H410.82V510.187" stroke="white" stroke-width="2.06962"/>
<path d="M286.642 624.016V628.155H290.782" stroke="white" stroke-width="2.06962"/>
<path d="M410.82 624.016V628.155H406.68" stroke="white" stroke-width="2.06962"/>
<g opacity="0.1">
<line x1="286.642" y1="627.12" x2="286.642" y2="751.298" stroke="white" stroke-width="2.06962"/>
<line x1="410.82" y1="627.12" x2="410.82" y2="751.298" stroke="white" stroke-width="2.06962"/>
<line x1="285.608" y1="750.263" x2="409.785" y2="750.263" stroke="white" stroke-width="2.06962"/>
<line x1="285.608" y1="628.155" x2="409.785" y2="628.155" stroke="white" stroke-width="2.06962"/>
</g>
<path d="M290.782 628.155H286.642V632.294" stroke="white" stroke-width="2.06962"/>
<path d="M406.68 628.155H410.82V632.294" stroke="white" stroke-width="2.06962"/>
<path d="M286.642 746.124V750.263H290.782" stroke="white" stroke-width="2.06962"/>
<path d="M410.82 746.124V750.263H406.68" stroke="white" stroke-width="2.06962"/>
<g opacity="0.1">
<line x1="286.642" y1="749.228" x2="286.642" y2="873.405" stroke="white" stroke-width="2.06962"/>
<line x1="410.82" y1="749.228" x2="410.82" y2="873.405" stroke="white" stroke-width="2.06962"/>
<line x1="285.608" y1="872.37" x2="409.785" y2="872.37" stroke="white" stroke-width="2.06962"/>
<line x1="285.608" y1="750.263" x2="409.785" y2="750.263" stroke="white" stroke-width="2.06962"/>
</g>
<path d="M290.782 750.263H286.642V754.402" stroke="white" stroke-width="2.06962"/>
<path d="M406.68 750.263H410.82V754.402" stroke="white" stroke-width="2.06962"/>
<path d="M286.642 868.231V872.37H290.782" stroke="white" stroke-width="2.06962"/>
<path d="M410.82 868.231V872.37H406.68" stroke="white" stroke-width="2.06962"/>
<g opacity="0.1">
<line x1="286.642" y1="871.335" x2="286.642" y2="995.513" stroke="white" stroke-width="2.06962"/>
<line x1="285.608" y1="872.37" x2="409.785" y2="872.37" stroke="white" stroke-width="2.06962"/>
</g>
<path d="M290.782 872.37H286.642V876.51" stroke="white" stroke-width="2.06962"/>
<path d="M406.68 872.37H410.82V876.51" stroke="white" stroke-width="2.06962"/>
<path d="M410.82 990.339V994.478H406.68" stroke="white" stroke-width="2.06962"/>
</g>
</g>
</svg>
