<svg width="441" height="70" viewBox="0 0 441 70" fill="none" xmlns="http://www.w3.org/2000/svg">
<g filter="url(#filter0_b_36_2527)">
<rect x="0.561432" width="440" height="70" rx="35" fill="white" fill-opacity="0.1"/>
<rect x="1.19643" y="0.635" width="438.73" height="68.73" rx="34.365" stroke="white" stroke-opacity="0.1" stroke-width="1.27"/>
</g>
<g filter="url(#filter1_d_36_2527)">
<circle cx="42.2556" cy="34.1327" r="18.1327" fill="white"/>
</g>
<path d="M37.7548 27.7809C37.6789 27.7358 37.5925 27.7117 37.5042 27.711C37.416 27.7102 37.3291 27.7328 37.2524 27.7765C37.1757 27.8201 37.112 27.8833 37.0676 27.9596C37.0232 28.0359 36.9999 28.1226 36.9998 28.2109V39.7892C36.9999 39.8774 37.0232 39.9641 37.0676 40.0404C37.112 40.1167 37.1757 40.1799 37.2524 40.2236C37.3291 40.2672 37.416 40.2898 37.5042 40.2891C37.5925 40.2883 37.6789 40.2642 37.7548 40.2192L47.524 34.43C47.5986 34.3857 47.6604 34.3228 47.7034 34.2474C47.7463 34.172 47.7689 34.0868 47.7689 34C47.7689 33.9133 47.7463 33.828 47.7034 33.7526C47.6604 33.6772 47.5986 33.6143 47.524 33.57L37.7548 27.7809Z" stroke="#FB047B" stroke-width="1.06" stroke-linecap="round" stroke-linejoin="round"/>
<path d="M103.403 26.776C103.403 25.9159 104.104 25.2193 104.969 25.2193C105.835 25.2193 106.536 25.9159 106.536 26.776V44.7047C106.536 45.5648 105.835 46.2614 104.969 46.2614C104.104 46.2614 103.403 45.5648 103.403 44.7047V26.776ZM118.507 26.776C118.507 25.9159 117.806 25.2193 116.94 25.2193C116.075 25.2193 115.374 25.9159 115.374 26.776V44.7047C115.374 45.5648 116.075 46.2614 116.94 46.2614C117.806 46.2614 118.507 45.5648 118.507 44.7047V26.776ZM142.449 18.7141C142.449 17.854 141.748 17.1575 140.883 17.1575C140.017 17.1575 139.316 17.854 139.316 18.7141V52.7545C139.316 53.6146 140.017 54.3112 140.883 54.3112C141.748 54.3112 142.449 53.6146 142.449 52.7545V18.7141ZM124.493 30.2769C124.493 29.4169 123.792 28.7203 122.926 28.7203C122.06 28.7203 121.36 29.4169 121.36 30.2769V41.1917C121.36 42.0518 122.06 42.7483 122.926 42.7483C123.792 42.7483 124.493 42.0518 124.493 41.1917V30.2769ZM130.472 26.776C130.472 25.9159 129.771 25.2193 128.905 25.2193C128.04 25.2193 127.339 25.9159 127.339 26.776V44.7047C127.339 45.5648 128.04 46.2614 128.905 46.2614C129.771 46.2614 130.472 45.5648 130.472 44.7047V26.776ZM136.439 22.8874C136.439 22.0273 135.744 21.3368 134.897 21.3368C134.044 21.3368 133.355 22.0273 133.355 22.8874V48.5873C133.355 49.4474 134.05 50.1379 134.897 50.1379C135.75 50.1379 136.439 49.4474 136.439 48.5873V22.8874ZM73.5056 22.8874C73.5056 22.0334 74.2004 21.3368 75.0477 21.3368C75.901 21.3368 76.5898 22.0273 76.5898 22.8874V48.5873C76.5898 49.4474 75.8949 50.1379 75.0477 50.1379C74.1944 50.1379 73.5056 49.4413 73.5056 48.5873V22.8874ZM79.4668 18.7141C79.4668 17.854 80.1677 17.1575 81.0332 17.1575C81.8988 17.1575 82.5997 17.854 82.5997 18.7141V52.7545C82.5997 53.6146 81.8988 54.3112 81.0332 54.3112C80.1677 54.3112 79.4668 53.6146 79.4668 52.7545V18.7141ZM97.4173 30.2769C97.4173 29.4169 98.1183 28.7203 98.9838 28.7203C99.8493 28.7203 100.55 29.4169 100.55 30.2769V41.1917C100.55 42.0518 99.8493 42.7483 98.9838 42.7483C98.1183 42.7483 97.4173 42.0518 97.4173 41.1917V30.2769ZM91.4379 26.776C91.4379 25.9159 92.1388 25.2193 93.0043 25.2193C93.8699 25.2193 94.5708 25.9159 94.5708 26.776V44.7047C94.5708 45.5648 93.8699 46.2614 93.0043 46.2614C92.1388 46.2614 91.4379 45.5648 91.4379 44.7047V26.776ZM85.4706 22.8874C85.4706 22.0273 86.1655 21.3368 87.0127 21.3368C87.866 21.3368 88.5548 22.0273 88.5548 22.8874V48.5873C88.5548 49.4474 87.8599 50.1379 87.0127 50.1379C86.1594 50.1379 85.4706 49.4474 85.4706 48.5873V22.8874ZM109.407 22.8874C109.407 22.0273 110.102 21.3368 110.949 21.3368C111.802 21.3368 112.491 22.0273 112.491 22.8874V48.5873C112.491 49.4474 111.796 50.1379 110.949 50.1379C110.095 50.1379 109.407 49.4474 109.407 48.5873V22.8874Z" fill="white"/>
<path d="M175.219 26.776C175.219 25.9159 175.92 25.2193 176.786 25.2193C177.651 25.2193 178.352 25.9159 178.352 26.776V44.7047C178.352 45.5648 177.651 46.2614 176.786 46.2614C175.92 46.2614 175.219 45.5648 175.219 44.7047V26.776ZM190.323 26.776C190.323 25.9159 189.623 25.2193 188.757 25.2193C187.891 25.2193 187.191 25.9159 187.191 26.776V44.7047C187.191 45.5648 187.891 46.2614 188.757 46.2614C189.623 46.2614 190.323 45.5648 190.323 44.7047V26.776ZM220.221 22.8874C220.221 22.0273 219.526 21.3368 218.679 21.3368C217.825 21.3368 217.137 22.0273 217.137 22.8874V48.5873C217.137 49.4474 217.831 50.1379 218.679 50.1379C219.532 50.1379 220.221 49.4474 220.221 48.5873V22.8874ZM214.266 18.7141C214.266 17.854 213.565 17.1575 212.699 17.1575C211.834 17.1575 211.133 17.854 211.133 18.7141V52.7545C211.133 53.6146 211.834 54.3112 212.699 54.3112C213.565 54.3112 214.266 53.6146 214.266 52.7545V18.7141ZM196.309 30.2769C196.309 29.4169 195.608 28.7203 194.743 28.7203C193.877 28.7203 193.176 29.4169 193.176 30.2769V41.1917C193.176 42.0518 193.877 42.7483 194.743 42.7483C195.608 42.7483 196.309 42.0518 196.309 41.1917V30.2769ZM202.288 26.776C202.288 25.9159 201.588 25.2193 200.722 25.2193C199.856 25.2193 199.156 25.9159 199.156 26.776V44.7047C199.156 45.5648 199.856 46.2614 200.722 46.2614C201.588 46.2614 202.288 45.5648 202.288 44.7047V26.776ZM208.256 22.8874C208.256 22.0273 207.561 21.3368 206.714 21.3368C205.86 21.3368 205.172 22.0273 205.172 22.8874V48.5873C205.172 49.4474 205.866 50.1379 206.714 50.1379C207.567 50.1379 208.256 49.4474 208.256 48.5873V22.8874ZM145.322 22.8874C145.322 22.0334 146.017 21.3368 146.864 21.3368C147.718 21.3368 148.406 22.0273 148.406 22.8874V48.5873C148.406 49.4474 147.711 50.1379 146.864 50.1379C146.011 50.1379 145.322 49.4413 145.322 48.5873V22.8874ZM151.283 18.7141C151.283 17.854 151.984 17.1575 152.85 17.1575C153.715 17.1575 154.416 17.854 154.416 18.7141V52.7545C154.416 53.6146 153.715 54.3112 152.85 54.3112C151.984 54.3112 151.283 53.6146 151.283 52.7545V18.7141ZM169.234 30.2769C169.234 29.4169 169.935 28.7203 170.8 28.7203C171.666 28.7203 172.367 29.4169 172.367 30.2769V41.1917C172.367 42.0518 171.666 42.7483 170.8 42.7483C169.935 42.7483 169.234 42.0518 169.234 41.1917V30.2769ZM163.254 26.776C163.254 25.9159 163.955 25.2193 164.821 25.2193C165.686 25.2193 166.387 25.9159 166.387 26.776V44.7047C166.387 45.5648 165.686 46.2614 164.821 46.2614C163.955 46.2614 163.254 45.5648 163.254 44.7047V26.776ZM157.287 22.8874C157.287 22.0273 157.982 21.3368 158.829 21.3368C159.683 21.3368 160.371 22.0273 160.371 22.8874V48.5873C160.371 49.4474 159.676 50.1379 158.829 50.1379C157.976 50.1379 157.287 49.4474 157.287 48.5873V22.8874ZM181.223 22.8874C181.223 22.0273 181.918 21.3368 182.765 21.3368C183.619 21.3368 184.307 22.0273 184.307 22.8874V48.5873C184.307 49.4474 183.613 50.1379 182.765 50.1379C181.912 50.1379 181.223 49.4474 181.223 48.5873V22.8874Z" fill="white"/>
<path d="M234.96 26.776C234.96 25.9159 235.661 25.2193 236.526 25.2193C237.392 25.2193 238.093 25.9159 238.093 26.776V44.7047C238.093 45.5648 237.392 46.2614 236.526 46.2614C235.661 46.2614 234.96 45.5648 234.96 44.7047V26.776ZM250.064 26.776C250.064 25.9159 249.363 25.2193 248.498 25.2193C247.632 25.2193 246.931 25.9159 246.931 26.776V44.7047C246.931 45.5648 247.632 46.2614 248.498 46.2614C249.363 46.2614 250.064 45.5648 250.064 44.7047V26.776ZM279.961 22.8874C279.961 22.0273 279.266 21.3368 278.419 21.3368C277.566 21.3368 276.877 22.0273 276.877 22.8874V48.5873C276.877 49.4474 277.572 50.1379 278.419 50.1379C279.273 50.1379 279.961 49.4474 279.961 48.5873V22.8874ZM274.006 18.7141C274.006 17.854 273.305 17.1575 272.44 17.1575C271.574 17.1575 270.873 17.854 270.873 18.7141V52.7545C270.873 53.6146 271.574 54.3112 272.44 54.3112C273.305 54.3112 274.006 53.6146 274.006 52.7545V18.7141ZM256.05 30.2769C256.05 29.4169 255.349 28.7203 254.483 28.7203C253.618 28.7203 252.917 29.4169 252.917 30.2769V41.1917C252.917 42.0518 253.618 42.7483 254.483 42.7483C255.349 42.7483 256.05 42.0518 256.05 41.1917V30.2769ZM262.029 26.776C262.029 25.9159 261.328 25.2193 260.463 25.2193C259.597 25.2193 258.896 25.9159 258.896 26.776V44.7047C258.896 45.5648 259.597 46.2614 260.463 46.2614C261.328 46.2614 262.029 45.5648 262.029 44.7047V26.776ZM267.996 22.8874C267.996 22.0273 267.301 21.3368 266.454 21.3368C265.601 21.3368 264.912 22.0273 264.912 22.8874V48.5873C264.912 49.4474 265.607 50.1379 266.454 50.1379C267.308 50.1379 267.996 49.4474 267.996 48.5873V22.8874ZM228.974 30.2769C228.974 29.4169 229.675 28.7203 230.541 28.7203C231.406 28.7203 232.107 29.4169 232.107 30.2769V41.1917C232.107 42.0518 231.406 42.7483 230.541 42.7483C229.675 42.7483 228.974 42.0518 228.974 41.1917V30.2769ZM222.995 26.776C222.995 25.9159 223.696 25.2193 224.561 25.2193C225.427 25.2193 226.128 25.9159 226.128 26.776V44.7047C226.128 45.5648 225.427 46.2614 224.561 46.2614C223.696 46.2614 222.995 45.5648 222.995 44.7047V26.776ZM240.964 22.8874C240.964 22.0273 241.659 21.3368 242.506 21.3368C243.359 21.3368 244.048 22.0273 244.048 22.8874V48.5873C244.048 49.4474 243.353 50.1379 242.506 50.1379C241.653 50.1379 240.964 49.4474 240.964 48.5873V22.8874Z" fill="white"/>
<path d="M313.088 26.776C313.088 25.9159 313.789 25.2193 314.655 25.2193C315.52 25.2193 316.221 25.9159 316.221 26.776V44.7047C316.221 45.5648 315.52 46.2614 314.655 46.2614C313.789 46.2614 313.088 45.5648 313.088 44.7047V26.776ZM328.192 26.776C328.192 25.9159 327.491 25.2193 326.626 25.2193C325.76 25.2193 325.059 25.9159 325.059 26.776V44.7047C325.059 45.5648 325.76 46.2614 326.626 46.2614C327.491 46.2614 328.192 45.5648 328.192 44.7047V26.776ZM358.089 22.8874C358.089 22.0273 357.395 21.3368 356.547 21.3368C355.694 21.3368 355.005 22.0273 355.005 22.8874V48.5873C355.005 49.4474 355.7 50.1379 356.547 50.1379C357.401 50.1379 358.089 49.4474 358.089 48.5873V22.8874ZM352.134 18.7141C352.134 17.854 351.433 17.1575 350.568 17.1575C349.702 17.1575 349.001 17.854 349.001 18.7141V52.7545C349.001 53.6146 349.702 54.3112 350.568 54.3112C351.433 54.3112 352.134 53.6146 352.134 52.7545V18.7141ZM334.178 30.2769C334.178 29.4169 333.477 28.7203 332.611 28.7203C331.746 28.7203 331.045 29.4169 331.045 30.2769V41.1917C331.045 42.0518 331.746 42.7483 332.611 42.7483C333.477 42.7483 334.178 42.0518 334.178 41.1917V30.2769ZM340.157 26.776C340.157 25.9159 339.456 25.2193 338.591 25.2193C337.725 25.2193 337.024 25.9159 337.024 26.776V44.7047C337.024 45.5648 337.725 46.2614 338.591 46.2614C339.456 46.2614 340.157 45.5648 340.157 44.7047V26.776ZM346.124 22.8874C346.124 22.0273 345.43 21.3368 344.582 21.3368C343.729 21.3368 343.04 22.0273 343.04 22.8874V48.5873C343.04 49.4474 343.735 50.1379 344.582 50.1379C345.436 50.1379 346.124 49.4474 346.124 48.5873V22.8874ZM307.102 30.2769C307.102 29.4169 307.803 28.7203 308.669 28.7203C309.534 28.7203 310.235 29.4169 310.235 30.2769V41.1917C310.235 42.0518 309.534 42.7483 308.669 42.7483C307.803 42.7483 307.102 42.0518 307.102 41.1917V30.2769ZM301.123 26.776C301.123 25.9159 301.824 25.2193 302.69 25.2193C303.555 25.2193 304.256 25.9159 304.256 26.776V44.7047C304.256 45.5648 303.555 46.2614 302.69 46.2614C301.824 46.2614 301.123 45.5648 301.123 44.7047V26.776ZM319.092 22.8874C319.092 22.0273 319.787 21.3368 320.634 21.3368C321.487 21.3368 322.176 22.0273 322.176 22.8874V48.5873C322.176 49.4474 321.481 50.1379 320.634 50.1379C319.781 50.1379 319.092 49.4474 319.092 48.5873V22.8874Z" fill="white"/>
<path d="M373.088 26.776C373.088 25.9159 373.789 25.2193 374.655 25.2193C375.52 25.2193 376.221 25.9159 376.221 26.776V44.7047C376.221 45.5648 375.52 46.2614 374.655 46.2614C373.789 46.2614 373.088 45.5648 373.088 44.7047V26.776ZM388.192 26.776C388.192 25.9159 387.491 25.2193 386.626 25.2193C385.76 25.2193 385.059 25.9159 385.059 26.776V44.7047C385.059 45.5648 385.76 46.2614 386.626 46.2614C387.491 46.2614 388.192 45.5648 388.192 44.7047V26.776ZM418.089 22.8874C418.089 22.0273 417.395 21.3368 416.547 21.3368C415.694 21.3368 415.005 22.0273 415.005 22.8874V48.5873C415.005 49.4474 415.7 50.1379 416.547 50.1379C417.401 50.1379 418.089 49.4474 418.089 48.5873V22.8874ZM412.134 18.7141C412.134 17.854 411.433 17.1575 410.568 17.1575C409.702 17.1575 409.001 17.854 409.001 18.7141V52.7545C409.001 53.6146 409.702 54.3112 410.568 54.3112C411.433 54.3112 412.134 53.6146 412.134 52.7545V18.7141ZM394.178 30.2769C394.178 29.4169 393.477 28.7203 392.611 28.7203C391.746 28.7203 391.045 29.4169 391.045 30.2769V41.1917C391.045 42.0518 391.746 42.7483 392.611 42.7483C393.477 42.7483 394.178 42.0518 394.178 41.1917V30.2769ZM400.157 26.776C400.157 25.9159 399.456 25.2193 398.591 25.2193C397.725 25.2193 397.024 25.9159 397.024 26.776V44.7047C397.024 45.5648 397.725 46.2614 398.591 46.2614C399.456 46.2614 400.157 45.5648 400.157 44.7047V26.776ZM406.124 22.8874C406.124 22.0273 405.43 21.3368 404.582 21.3368C403.729 21.3368 403.04 22.0273 403.04 22.8874V48.5873C403.04 49.4474 403.735 50.1379 404.582 50.1379C405.436 50.1379 406.124 49.4474 406.124 48.5873V22.8874ZM367.102 30.2769C367.102 29.4169 367.803 28.7203 368.669 28.7203C369.534 28.7203 370.235 29.4169 370.235 30.2769V41.1917C370.235 42.0518 369.534 42.7483 368.669 42.7483C367.803 42.7483 367.102 42.0518 367.102 41.1917V30.2769ZM361.123 26.776C361.123 25.9159 361.824 25.2193 362.69 25.2193C363.555 25.2193 364.256 25.9159 364.256 26.776V44.7047C364.256 45.5648 363.555 46.2614 362.69 46.2614C361.824 46.2614 361.123 45.5648 361.123 44.7047V26.776ZM379.092 22.8874C379.092 22.0273 379.787 21.3368 380.634 21.3368C381.487 21.3368 382.176 22.0273 382.176 22.8874V48.5873C382.176 49.4474 381.481 50.1379 380.634 50.1379C379.781 50.1379 379.092 49.4474 379.092 48.5873V22.8874Z" fill="white"/>
<path d="M294.99 26.7759C294.99 25.9158 295.691 25.2192 296.557 25.2192C297.422 25.2192 298.123 25.9158 298.123 26.7759V44.7046C298.123 45.5647 297.422 46.2613 296.557 46.2613C295.691 46.2613 294.99 45.5647 294.99 44.7046V26.7759ZM289.005 30.2768C289.005 29.4167 289.706 28.7202 290.571 28.7202C291.437 28.7202 292.138 29.4167 292.138 30.2768V41.1916C292.138 42.0517 291.437 42.7482 290.571 42.7482C289.706 42.7482 289.005 42.0517 289.005 41.1916V30.2768ZM283.025 26.7759C283.025 25.9158 283.726 25.2192 284.592 25.2192C285.457 25.2192 286.158 25.9158 286.158 26.7759V44.7046C286.158 45.5647 285.457 46.2613 284.592 46.2613C283.726 46.2613 283.025 45.5647 283.025 44.7046V26.7759Z" fill="white"/>
<defs>
<filter id="filter0_b_36_2527" x="-56.064" y="-56.6254" width="553.251" height="183.251" filterUnits="userSpaceOnUse" color-interpolation-filters="sRGB">
<feFlood flood-opacity="0" result="BackgroundImageFix"/>
<feGaussianBlur in="BackgroundImageFix" stdDeviation="28.3127"/>
<feComposite in2="SourceAlpha" operator="in" result="effect1_backgroundBlur_36_2527"/>
<feBlend mode="normal" in="SourceGraphic" in2="effect1_backgroundBlur_36_2527" result="shape"/>
</filter>
<filter id="filter1_d_36_2527" x="16.9416" y="8.81872" width="50.628" height="50.6279" filterUnits="userSpaceOnUse" color-interpolation-filters="sRGB">
<feFlood flood-opacity="0" result="BackgroundImageFix"/>
<feColorMatrix in="SourceAlpha" type="matrix" values="0 0 0 0 0 0 0 0 0 0 0 0 0 0 0 0 0 0 127 0" result="hardAlpha"/>
<feOffset/>
<feGaussianBlur stdDeviation="3.59064"/>
<feComposite in2="hardAlpha" operator="out"/>
<feColorMatrix type="matrix" values="0 0 0 0 0.984314 0 0 0 0 0.0196078 0 0 0 0 0.486275 0 0 0 0.7 0"/>
<feBlend mode="normal" in2="BackgroundImageFix" result="effect1_dropShadow_36_2527"/>
<feBlend mode="normal" in="SourceGraphic" in2="effect1_dropShadow_36_2527" result="shape"/>
</filter>
</defs>
</svg>
