<svg width="195" height="115" viewBox="0 0 195 115" fill="none" xmlns="http://www.w3.org/2000/svg">
<path d="M102.301 0.959961C117.551 0.959961 129.944 11.9145 129.944 25.4437C129.944 46.5099 129.944 76.3772 129.944 94.4476C129.944 98.6141 128.053 102.64 124.713 105.589C121.374 108.585 116.867 110.224 112.119 110.224C96.9898 110.224 75.3426 110.224 60.2136 110.224C55.5058 110.224 50.9587 108.538 47.6193 105.589C44.2799 102.64 42.3884 98.6141 42.3884 94.4476V0.959961C42.3884 0.959961 76.6299 0.959961 102.301 0.959961Z" fill="#CC5A95"/>
<path d="M48.9487 0.959961H28.6401V16.8256H48.9487V0.959961Z" fill="#CC5A95"/>
<path d="M14.168 15.513C14.168 16.0412 14.168 16.5101 14.2244 17.0384H42.07C42.1264 16.5687 42.1264 16.0412 42.1264 15.513C42.1264 7.47381 35.8695 0.959961 28.1472 0.959961C20.4249 0.959961 14.168 7.47381 14.168 15.513Z" fill="url(#paint0_linear_118_34791)"/>
<path d="M71.3323 71.3819C71.3323 71.9231 71.333 72.4043 71.3931 72.9456H101.106C101.166 72.4644 101.166 71.9231 101.166 71.3819C101.166 63.1415 94.4896 56.4648 86.2493 56.4648C78.0089 56.4648 71.3323 63.1415 71.3323 71.3819Z" fill="white"/>
<path d="M86.2183 54.1241C90.5085 54.1241 93.9868 50.6457 93.9868 46.3555C93.9868 42.0653 90.5085 38.5869 86.2183 38.5869C81.9281 38.5869 78.4497 42.0653 78.4497 46.3555C78.4497 50.6457 81.9281 54.1241 86.2183 54.1241Z" fill="white"/>
<g opacity="0.29">
<path d="M14.9809 56.4102C18.8337 56.4102 21.9619 59.5383 21.9619 63.3911C21.9619 67.2439 18.8337 70.372 14.9809 70.372C11.1282 70.372 8 67.2439 8 63.3911C8 59.5383 11.1282 56.4102 14.9809 56.4102Z" stroke="#B3C0D7" stroke-width="14.07"/>
</g>
<g opacity="0.15">
<path d="M169.104 51.5879C176.634 51.5879 182.748 57.702 182.748 65.2325C182.748 72.7629 176.634 78.877 169.104 78.877C161.573 78.877 155.459 72.7629 155.459 65.2325C155.459 57.702 161.573 51.5879 169.104 51.5879Z" stroke="#E7B2CD" stroke-width="24.12"/>
</g>
<g style="mix-blend-mode:multiply">
<path d="M45.0486 91.3529C44.2236 87.1074 40.107 84.302 35.8352 85.1321C31.5634 85.9622 28.797 90.1051 29.622 94.3507C30.447 98.5962 34.5636 101.402 38.8354 100.571C43.0774 99.7472 45.8794 95.6283 45.0486 91.3529ZM41.0666 76.5665C36.6725 73.5998 30.7101 74.7585 27.7468 79.1549C25.6201 82.3103 23.1827 85.9271 21.0261 89.0883C18.0628 93.4847 19.2225 99.4528 23.6167 102.419C26.806 104.573 30.4205 107.014 33.5742 109.143C37.9683 112.11 43.9307 110.951 46.894 106.555C49.0506 103.393 51.488 99.7765 53.6147 96.6211C56.578 92.2247 55.4183 86.2566 51.0241 83.2899C47.8348 81.1366 44.2203 78.6958 41.0666 76.5665Z" fill="#CC5A95"/>
</g>
<defs>
<linearGradient id="paint0_linear_118_34791" x1="14.168" y1="17.0384" x2="42.2421" y2="16.8339" gradientUnits="userSpaceOnUse">
<stop offset="0.0364" stop-color="#FB047B"/>
<stop offset="0.9988" stop-color="#130EFF"/>
</linearGradient>
</defs>
</svg>
