<svg width="24" height="24" viewBox="0 0 24 24" fill="none" xmlns="http://www.w3.org/2000/svg">
<path fill-rule="evenodd" clip-rule="evenodd" d="M14.8283 12.0005L16.2426 13.4147L19.071 10.5863C20.6331 9.02414 20.6331 6.49148 19.071 4.92939C17.5089 3.36729 14.9762 3.36729 13.4141 4.92939L10.5857 7.75781L11.9999 9.17203L14.8283 6.3436C15.6094 5.56255 16.8757 5.56255 17.6568 6.3436C18.4378 7.12465 18.4378 8.39098 17.6568 9.17203L14.8283 12.0005ZM12 14.829L13.4142 16.2432L10.5858 19.0716C9.02365 20.6337 6.49099 20.6337 4.9289 19.0716C3.3668 17.5095 3.3668 14.9769 4.9289 13.4148L7.75732 10.5863L9.17154 12.0005L6.34311 14.829C5.56206 15.61 5.56206 16.8763 6.34311 17.6574C7.12416 18.4384 8.39049 18.4384 9.17154 17.6574L12 14.829ZM14.8284 9.17196C15.2189 9.56248 15.2189 10.1957 14.8284 10.5862L10.5857 14.8288C10.1952 15.2193 9.56206 15.2193 9.17154 14.8288C8.78101 14.4383 8.78101 13.8051 9.17154 13.4146L13.4142 9.17196C13.8047 8.78143 14.4379 8.78143 14.8284 9.17196Z" fill="#8F92A1"/>
</svg>
