<svg width="59" height="58" viewBox="0 0 59 58" fill="none" xmlns="http://www.w3.org/2000/svg">
<path fill-rule="evenodd" clip-rule="evenodd" d="M0.388672 29.0166C0.388672 13.0165 13.3983 0 29.3906 0C45.3822 0 58.3918 13.0165 58.3887 29.015C58.3887 44.2086 46.5254 56.921 31.3802 57.9558L31.0652 57.9929L31.0652 45.6265H31.2302L31.3368 45.5996C33.3998 45.3587 35.3799 44.7386 37.2218 43.7551L37.4105 43.6548L39.9472 47.3185L39.7175 47.4481C38.3966 48.1914 36.9787 48.7949 35.5007 49.242V52.8157C44.2998 50.5517 51.2467 43.4455 53.3105 34.5935L49.8896 34.1164C48.8253 38.3899 46.3849 42.3064 43.0003 45.1652L42.7982 45.3358L40.2622 41.6721L40.4225 41.5307C41.1165 40.9185 41.7718 40.2313 42.3726 39.4856L39.1719 37.5439C36.6976 40.3829 33.1432 42.007 29.3883 42.007C24.9188 42.007 20.7076 39.6499 18.3469 35.8408L14.8683 37.2382C15.575 38.4823 16.4339 39.6278 17.4224 40.6452L17.5716 40.7984L14.7625 44.2536L14.5746 44.068C10.5031 40.0575 8.2617 34.712 8.2617 29.0166C8.2617 17.3611 17.739 7.878 29.3891 7.878C29.7451 7.878 30.0988 7.88985 30.4502 7.90722L30.7139 7.92065L30.0688 12.3387L29.8557 12.3332C29.8053 12.332 29.7549 12.3294 29.7049 12.3269C29.689 12.3261 29.6732 12.3253 29.6575 12.3245C29.5691 12.3198 29.4799 12.315 29.3891 12.315C20.1841 12.315 12.6956 19.8076 12.6956 29.0174C12.6956 30.399 12.8685 31.779 13.2112 33.1242L16.6929 31.7261C16.5018 30.8295 16.4055 29.9369 16.4055 29.0174C16.4055 28.0979 16.505 27.1705 16.7024 26.2621L16.7616 25.9872L20.9634 27.6152L20.9365 27.8048C20.871 28.2638 20.8402 28.6493 20.8402 29.0174C20.8402 33.7341 24.6757 37.5716 29.3899 37.5716C34.104 37.5716 37.9395 33.7341 37.9395 29.0174C37.9395 24.3007 34.104 20.4632 29.3899 20.4632C26.5618 20.4632 23.9193 21.8653 22.3198 24.2146L22.2124 24.3726L18.0209 22.7477L18.163 22.5044C20.4873 18.5089 24.7894 16.0269 29.3899 16.0269C36.5492 16.0269 42.3734 21.8543 42.3734 29.0174C42.3734 30.6478 42.0726 32.2403 41.4773 33.7538L44.6851 35.6994C45.6128 33.5879 46.0833 31.3414 46.0833 29.0174C46.0833 28.2733 46.0296 27.4999 45.9223 26.7195L45.893 26.5086L50.2038 25.3837L50.2456 25.6444C50.4256 26.7677 50.5172 27.9028 50.5172 29.0174C50.5172 29.2544 50.5101 29.489 50.5006 29.7236L53.9248 30.2007C53.9461 29.7702 53.9571 29.3807 53.9571 29.0174C53.9571 23.2896 51.9391 17.7245 48.2687 13.3143L45.8173 15.7544C47.296 17.5831 48.4463 19.6069 49.2382 21.7713L49.329 22.0194L45.0143 23.145L44.9362 22.946C43.0097 18.0247 38.8143 14.267 33.7124 12.8949L33.5064 12.8396L34.1514 8.4191L34.408 8.4815C37.4026 9.21456 40.2607 10.6412 42.686 12.6129L45.1375 10.1728C40.7209 6.47192 35.1391 4.43705 29.3906 4.43705C15.8442 4.43705 4.82258 15.4629 4.82416 29.0174C4.82416 40.3205 12.4319 50.0714 23.3643 52.8354V49.2736C21.3463 48.6701 19.4349 47.7688 17.6782 46.5934L17.4587 46.4464L20.2662 42.9921L20.447 43.1074C22.5835 44.4692 24.937 45.3082 27.4413 45.6012L27.7974 45.6281L27.7974 58L27.6537 57.9597V57.9747L27.3971 57.9573C12.2519 56.9225 0.388672 45.0167 0.388672 29.0166ZM29.3908 23.8172C32.2559 23.8172 34.5866 26.1499 34.5866 29.0166C34.5866 31.8832 32.2567 34.2159 29.3908 34.2159C26.5248 34.2159 24.1942 31.8832 24.1942 29.0166C24.1942 26.1499 26.5256 23.8172 29.3908 23.8172Z" fill="white"/>
</svg>
