<svg width="20" height="20" viewBox="0 0 20 20" fill="none" xmlns="http://www.w3.org/2000/svg">
<path d="M10 18.125C12.4162 18.125 14.375 16.1662 14.375 13.75C14.375 11.3338 12.4162 9.375 10 9.375C7.58375 9.375 5.625 11.3338 5.625 13.75C5.625 16.1662 7.58375 18.125 10 18.125Z" stroke="white" stroke-width="1.5" stroke-linecap="round" stroke-linejoin="round"/>
<path d="M10 15.625C11.0355 15.625 11.875 14.7855 11.875 13.75C11.875 12.7145 11.0355 11.875 10 11.875C8.96447 11.875 8.125 12.7145 8.125 13.75C8.125 14.7855 8.96447 15.625 10 15.625Z" stroke="white" stroke-width="1.5" stroke-linecap="round" stroke-linejoin="round"/>
<path d="M5.74217 12.6172L1.63436 6.22344C1.51716 6.04105 1.44942 5.83132 1.43778 5.61484C1.42614 5.39836 1.471 5.18258 1.56795 4.98867L2.77889 2.5668C2.88265 2.3589 3.04229 2.18404 3.23991 2.06184C3.43753 1.93964 3.66529 1.87494 3.89764 1.875H16.1023C16.3345 1.87502 16.562 1.93967 16.7595 2.06172C16.9569 2.18377 17.1165 2.35839 17.2203 2.56602L18.4312 4.98789C18.5282 5.18179 18.5731 5.39758 18.5614 5.61406C18.5498 5.83054 18.482 6.04027 18.3648 6.22266L14.2578 12.6172M14.4922 5.625H1.4453M16.7476 2.05469L11.914 9.76562M5.49022 5.625L8.08592 9.76562" stroke="white" stroke-width="1.5" stroke-linecap="round" stroke-linejoin="round"/>
</svg>
