<svg width="1175" height="134" viewBox="0 0 1175 134" fill="none" xmlns="http://www.w3.org/2000/svg">
<path d="M13.9855 110.308C10.2347 114.058 7.60918 119.31 5.17117 123.998C3.85839 126.249 2.54561 128.687 1.79545 131.125C1.60791 131.312 0.857756 133.75 1.98299 132.812L38.5532 96.0547C44.367 90.4285 49.9932 84.6148 55.8069 78.9886C69.3097 92.4914 82.8126 105.994 96.503 119.685L109.818 133C110.568 133.75 116.945 123.06 117.507 122.123C119.008 119.497 120.508 116.872 121.821 113.871C122.008 113.308 123.509 110.683 122.946 110.12C110.756 97.9301 98.5659 85.74 86.1883 73.3624L73.8107 60.9848L97.0656 37.7298L110.381 24.4145C114.132 20.6637 116.757 15.4126 119.195 10.7241C120.508 8.47365 121.821 6.03563 122.571 3.59762C122.759 3.41008 123.509 0.97206 122.383 1.90976L85.6257 38.6675L68.5596 55.7336L27.8635 15.0375L14.5482 1.72222C13.798 0.97206 7.2341 11.6618 6.85902 12.5995C5.35871 15.2251 3.85839 17.8506 2.54561 20.8513C2.17053 21.4139 0.857756 24.0394 1.42037 24.6021L37.9906 61.3598L50.5558 73.7375L27.3009 96.9924L13.9855 110.308ZM255.125 24.6021C256.25 24.6021 257.938 24.7896 258.876 24.6021C259.063 24.6021 259.438 24.6021 259.626 24.6021C260.001 26.1024 259.626 27.7902 259.626 29.2906V38.8551V68.8614L254.562 73.925C251.749 76.7381 248.561 79.5512 245.935 82.5518C245.748 82.7394 245.748 82.9269 245.56 83.1144C244.81 83.1144 244.06 83.1144 243.31 83.1144H184.422H164.543V74.1125V24.6021H219.117H255.125ZM151.228 132.437C151.228 133.75 152.541 132.062 152.728 131.687C154.416 129.812 155.916 127.374 157.229 125.311C159.105 122.31 160.792 119.497 162.293 116.309C163.043 114.809 164.543 112.558 164.543 110.683V109.182L187.986 114.996L246.311 129.624L259.813 133C260.564 133.188 262.439 130.187 262.439 130.187C264.314 127.561 266.002 124.936 267.503 122.31C267.878 121.373 273.879 110.308 272.941 110.12L237.496 101.306L250.249 88.5531C255.875 82.9269 261.501 77.8633 265.627 71.1119C268.253 66.986 271.066 62.4851 272.566 57.7966C272.941 56.6714 273.129 56.6714 272.941 56.4838C272.941 56.4838 272.941 56.6714 272.941 56.2963C273.129 55.7336 272.941 55.171 272.941 54.6084V46.3567V2.28484V1.72222H236.183H177.859H164.543C163.606 1.72222 161.918 4.34778 161.73 4.53531C160.23 6.59826 158.917 8.84873 157.604 10.9117C156.292 13.3497 154.791 15.7877 153.666 18.4133C152.728 19.9136 151.228 22.164 151.228 24.0394V60.6097V105.432C151.228 105.619 151.228 105.807 151.228 105.807V119.122V132.437ZM346.42 79.1761H338.543C337.418 79.1761 335.543 80.4889 335.355 80.6764C333.292 82.1767 331.417 83.6771 329.542 85.3649C327.854 86.8652 325.978 88.3656 324.665 90.0534C324.478 90.241 322.79 92.3039 323.353 92.3039H377.739H385.616C386.741 92.3039 388.429 90.8036 388.804 90.616C390.867 89.1157 392.742 87.6154 394.43 86.1151C396.306 84.4272 397.994 82.9269 399.494 81.239C399.681 81.0515 401.369 79.1761 400.807 79.1761H346.42ZM562.059 129.999C565.809 125.123 568.997 119.497 571.435 113.871C571.811 112.933 572.748 111.433 572.561 110.12C568.06 92.3039 563.559 74.3001 559.058 56.2963L546.68 6.97333C546.493 6.03563 546.118 2.47238 545.367 1.90976C544.617 1.34715 541.804 1.90976 540.867 1.90976H491.356C490.418 1.90976 488.918 4.53531 488.543 4.72286C487.23 6.78579 485.73 9.03627 484.605 11.0992C482.167 15.2251 479.354 19.5385 478.041 24.227L469.039 60.7972L451.035 132.437C451.035 133 451.223 133.188 451.598 132.625L545.93 78.9886L559.433 133C559.433 133.375 562.246 129.999 562.059 129.999ZM485.917 24.7896H530.739C531.302 24.7896 532.052 24.6021 532.427 24.9771C532.802 25.3522 532.802 26.8525 532.99 27.4152L542.554 65.4857L464.538 109.933L485.917 24.7896ZM655.046 132.437C655.046 133.75 656.359 132.25 656.734 131.875C658.422 129.812 659.734 127.561 661.047 125.311C662.923 122.498 664.61 119.497 666.111 116.497C666.861 114.809 668.361 112.558 668.361 110.87V74.1125V24.6021H696.117H709.432C710.37 24.6021 711.87 21.9765 712.246 21.6014C713.933 19.1634 715.621 16.5379 717.122 13.7248C718.622 11.0992 720.31 8.28611 721.435 5.47302C721.623 5.28547 723.123 1.72222 722.56 1.72222H685.99H627.478H614.162C613.225 1.72222 611.537 4.34778 611.349 4.53531C609.661 7.16088 607.973 9.78643 606.473 12.412C604.785 15.2251 603.285 17.8506 601.972 20.8513C601.972 21.0388 600.472 24.6021 600.847 24.6021H637.605H655.046V60.6097V119.122V132.437ZM762.657 2.84747C760.969 4.9104 759.469 7.16088 758.156 9.41135C756.468 12.2244 754.593 15.2251 753.28 18.2257C752.342 19.9136 750.842 22.164 750.842 23.8519V60.6097V119.122V132.437C750.842 132.625 750.842 132.812 750.842 133H787.6H845.925H859.428C860.365 133 861.866 130.374 862.053 130.187C863.929 127.561 865.616 124.936 867.117 122.31C868.617 119.497 870.117 116.872 871.43 113.871C871.618 113.683 873.118 110.12 872.555 110.12H835.985H777.66C773.347 110.12 768.658 109.558 764.345 110.12C764.157 110.12 764.157 110.12 764.157 110.308C764.157 109.933 764.157 109.37 764.157 108.995V102.056V46.5442C764.157 32.1036 764.532 17.4756 764.157 3.035C764.157 2.65992 764.157 2.47238 764.157 2.28484C764.157 0.97206 762.845 2.47238 762.657 2.84747ZM1011.86 129.999C1015.61 125.123 1018.8 119.497 1021.24 113.871C1021.61 112.933 1022.55 111.433 1022.36 110.12C1017.86 92.3039 1013.36 74.3001 1008.86 56.2963L996.482 6.97333C996.295 6.03563 995.92 2.47238 995.17 1.90976C994.42 1.34715 991.606 1.90976 990.669 1.90976H941.158C940.221 1.90976 938.72 4.53531 938.345 4.72286C937.032 6.78579 935.532 9.03627 934.407 11.0992C931.969 15.2251 929.156 19.5385 927.843 24.227L918.841 60.7972L900.837 132.437C900.837 133 901.025 133.188 901.4 132.625L995.732 78.9886L1009.24 133C1009.24 133.375 1012.05 129.999 1011.86 129.999ZM935.72 24.7896H980.542C981.104 24.7896 981.854 24.6021 982.229 24.9771C982.605 25.3522 982.605 26.8525 982.792 27.4152L992.357 65.4857L914.34 109.933L935.72 24.7896ZM1145.73 99.0553L1152.48 102.431C1150.05 104.869 1147.42 107.12 1145.36 109.745C1145.17 109.745 1144.98 109.933 1144.98 110.12C1144.23 110.12 1143.48 110.12 1142.73 110.12H1084.03H1063.96C1063.03 110.12 1061.53 112.558 1061.34 112.933C1059.46 115.371 1057.78 118.184 1056.28 120.81C1054.77 123.435 1053.27 126.249 1051.96 129.062C1051.77 129.437 1050.46 132.812 1050.84 132.812H1100.72H1128.1C1129.42 132.812 1131.48 133.375 1132.6 132.625C1133.35 132.25 1133.92 131.312 1134.48 130.75L1138.79 126.249L1159.61 105.619C1161.3 103.931 1174.24 84.0521 1172.17 82.9269L1135.6 64.7356L1077.47 35.6669C1075.22 34.5417 1072.97 33.4164 1070.72 32.2912C1073.15 29.8532 1075.78 27.6027 1077.84 24.9771C1077.84 24.9771 1078.03 24.7896 1078.22 24.6021C1078.97 24.6021 1079.72 24.6021 1080.47 24.6021H1139.17H1159.05C1159.98 24.6021 1161.67 22.164 1161.86 21.789C1163.55 19.351 1165.24 16.5379 1166.74 13.9123C1168.42 11.2867 1169.92 8.47365 1171.05 5.66056C1171.24 5.28547 1172.74 1.90976 1172.17 1.90976H1122.48H1095.1C1093.78 1.90976 1091.72 1.34715 1090.6 2.09731C1089.84 2.47238 1089.28 3.41008 1088.72 3.9727L1084.22 8.47365L1063.4 29.103C1061.9 30.7909 1048.77 50.6701 1050.84 51.7953L1087.59 69.9867L1145.73 99.0553Z" fill="url(#paint0_linear_4_462)"/>
<defs>
<linearGradient id="paint0_linear_4_462" x1="27.4136" y1="44.0821" x2="1186.53" y2="20.4999" gradientUnits="userSpaceOnUse">
<stop stop-color="#FB047B"/>
<stop offset="1" stop-color="#130EFF"/>
</linearGradient>
</defs>
</svg>
