<svg width="20" height="21" viewBox="0 0 20 21" fill="none" xmlns="http://www.w3.org/2000/svg">
<path d="M5.72 15.4561L7.481 14.9481L18.084 4.21809C18.1676 4.13239 18.2142 4.01722 18.2136 3.89748C18.2131 3.77773 18.1654 3.66301 18.081 3.57809L17.446 2.93609C17.405 2.89393 17.3559 2.86036 17.3018 2.83735C17.2477 2.81434 17.1895 2.80234 17.1306 2.80206C17.0718 2.80178 17.0135 2.81322 16.9591 2.83572C16.9048 2.85822 16.8554 2.89132 16.814 2.93309L6.239 13.6351L5.719 15.4551L5.72 15.4561ZM18.703 1.66409L19.338 2.30709C20.214 3.19409 20.222 4.62509 19.354 5.50309L8.428 16.5611L4.664 17.6451C4.4342 17.7094 4.18826 17.6799 3.98016 17.5631C3.77206 17.4463 3.6188 17.2518 3.554 17.0221C3.50578 16.857 3.50509 16.6816 3.552 16.5161L4.647 12.6761L15.544 1.64709C15.7512 1.43845 15.9979 1.27315 16.2696 1.16084C16.5414 1.04853 16.8328 0.991459 17.1269 0.992948C17.4209 0.994438 17.7117 1.05446 17.9823 1.16952C18.2529 1.28457 18.4979 1.45236 18.703 1.66309V1.66409ZM7.184 2.81709C7.68 2.81709 8.082 3.22409 8.082 3.72609C8.08279 3.84476 8.06018 3.96242 8.01547 4.07234C7.97076 4.18227 7.90481 4.2823 7.82141 4.36672C7.73801 4.45115 7.63879 4.5183 7.52942 4.56435C7.42004 4.6104 7.30267 4.63444 7.184 4.63509H3.592C2.6 4.63509 1.796 5.44909 1.796 6.45209V17.3581C1.796 18.3621 2.6 19.1761 3.592 19.1761H14.368C15.36 19.1761 16.165 18.3621 16.165 17.3581V13.7231C16.165 13.2211 16.567 12.8141 17.063 12.8141C17.559 12.8141 17.961 13.2211 17.961 13.7241V17.3581C17.961 19.3661 16.352 20.9941 14.368 20.9941H3.592C1.608 20.9941 0 19.3661 0 17.3581V6.45209C0 4.44509 1.608 2.81709 3.592 2.81709H7.184Z" fill="white"/>
</svg>
