<svg width="20" height="24" viewBox="0 0 20 24" fill="none" xmlns="http://www.w3.org/2000/svg">
<path d="M2.875 23.25H1.375C1.07663 23.25 0.790483 23.1315 0.579505 22.9205C0.368526 22.7095 0.25 22.4234 0.25 22.125V15.375C0.25 15.0766 0.368526 14.7905 0.579505 14.5795C0.790483 14.3685 1.07663 14.25 1.375 14.25H2.875C3.17337 14.25 3.45952 14.3685 3.6705 14.5795C3.88147 14.7905 4 15.0766 4 15.375V22.125C4 22.4234 3.88147 22.7095 3.6705 22.9205C3.45952 23.1315 3.17337 23.25 2.875 23.25ZM13.375 23.25H11.875C11.5766 23.25 11.2905 23.1315 11.0795 22.9205C10.8685 22.7095 10.75 22.4234 10.75 22.125V10.875C10.75 10.5766 10.8685 10.2905 11.0795 10.0795C11.2905 9.86853 11.5766 9.75 11.875 9.75H13.375C13.6734 9.75 13.9595 9.86853 14.1705 10.0795C14.3815 10.2905 14.5 10.5766 14.5 10.875V22.125C14.5 22.4234 14.3815 22.7095 14.1705 22.9205C13.9595 23.1315 13.6734 23.25 13.375 23.25ZM18.625 23.25H17.125C16.8266 23.25 16.5405 23.1315 16.3295 22.9205C16.1185 22.7095 16 22.4234 16 22.125V5.625C16 5.32663 16.1185 5.04048 16.3295 4.8295C16.5405 4.61853 16.8266 4.5 17.125 4.5H18.625C18.9234 4.5 19.2095 4.61853 19.4205 4.8295C19.6315 5.04048 19.75 5.32663 19.75 5.625V22.125C19.75 22.4234 19.6315 22.7095 19.4205 22.9205C19.2095 23.1315 18.9234 23.25 18.625 23.25ZM8.125 23.25H6.625C6.32663 23.25 6.04048 23.1315 5.8295 22.9205C5.61853 22.7095 5.5 22.4234 5.5 22.125V1.875C5.5 1.57663 5.61853 1.29048 5.8295 1.0795C6.04048 0.868526 6.32663 0.75 6.625 0.75H8.125C8.42337 0.75 8.70952 0.868526 8.9205 1.0795C9.13147 1.29048 9.25 1.57663 9.25 1.875V22.125C9.25 22.4234 9.13147 22.7095 8.9205 22.9205C8.70952 23.1315 8.42337 23.25 8.125 23.25Z" fill="#555555"/>
</svg>
