<svg width="22" height="22" viewBox="0 0 22 22" fill="none" xmlns="http://www.w3.org/2000/svg">
<path d="M0.3125 0.3125V21.6875H21.6875V0.3125H0.3125ZM18.0702 5.37687L16.9236 6.47609C16.8752 6.51307 16.8377 6.56254 16.8152 6.61919C16.7928 6.67584 16.7862 6.73753 16.7961 6.79766V14.8733C16.7755 14.9956 16.8247 15.1198 16.9236 15.1948L18.043 16.2941V16.5355H12.4123V16.2941L13.572 15.1681C13.6859 15.0542 13.6859 15.0205 13.6859 14.8466V8.31922L10.4614 16.5087H10.0255L6.27125 8.31922V13.8083C6.23984 14.0389 6.31672 14.2714 6.47891 14.4383L7.98734 16.2678V16.5092H3.71047V16.2678L5.21891 14.4383C5.38016 14.2709 5.45234 14.037 5.41344 13.8083V7.46094C5.43125 7.28469 5.36422 7.11031 5.2325 6.99172L3.89188 5.37641V5.135H8.05484L11.2728 12.192L14.1017 5.135H18.0702V5.37687Z" fill="#BDBDBD"/>
</svg>
