<svg width="16" height="19" viewBox="0 0 16 19" fill="none" xmlns="http://www.w3.org/2000/svg">
<path d="M7.89982 4.6C7.89982 4.6 7.79982 3 8.79982 1.6L11.5998 0C11.5998 0 11.6998 1.6 10.6998 3L7.89982 4.6ZM13.2998 10.2C13.2998 8.7 14.0998 7.4 15.2998 6.6L14.3998 5.7C13.8998 5.4 13.2998 5 11.9998 5C10.5998 5 9.59982 5.9 8.29982 5.9C6.99982 5.9 6.09982 5.1 5.19982 5C4.49982 5 3.79982 5 3.09982 5.3C2.59982 5.5 1.89982 6 1.49982 6.5C0.899822 7.1 0.299822 8.4 0.199822 9.6C0.0998222 10.8 0.0998225 11.7 0.399822 12.8C0.599822 13.7 0.999822 14.6 1.39982 15.4C1.69982 16 1.99982 16.6 2.39982 17.2C2.69982 17.6 3.09982 18 3.49982 18.3C3.79982 18.5 4.09982 18.7 4.49982 18.9C4.69982 18.9 4.99982 19 5.29982 19C5.89982 18.9 6.89982 18.1 7.69982 17.9C8.09982 17.8 8.49982 17.8 8.99982 17.9C9.69982 18 10.3998 18.8 11.1998 18.9C11.7998 19 12.3998 18.9 12.8998 18.6C13.2998 18.4 13.5998 18.1 13.8998 17.7C14.2998 17.3 14.5998 16.8 14.8998 16.4C15.2998 15.7 15.7998 14.9 15.9998 14.1C14.3998 13.5 13.2998 12 13.2998 10.2Z" fill="black"/>
</svg>
