<svg width="16" height="19" viewBox="0 0 16 19" fill="none" xmlns="http://www.w3.org/2000/svg">
<path d="M7.9 4.6C7.9 4.6 7.80001 3 8.80001 1.6L11.6 0C11.6 0 11.7 1.6 10.7 3L7.9 4.6ZM13.3 10.2C13.3 8.7 14.1 7.4 15.3 6.6L14.4 5.7C13.9 5.4 13.3 5 12 5C10.6 5 9.60001 5.9 8.30001 5.9C7.00001 5.9 6.10001 5.1 5.20001 5C4.50001 5 3.80001 5 3.10001 5.3C2.60001 5.5 1.90001 6 1.50001 6.5C0.900005 7.1 0.300005 8.4 0.200005 9.6C0.100005 10.8 0.100006 11.7 0.400006 12.8C0.600006 13.7 1.00001 14.6 1.40001 15.4C1.70001 16 2.00001 16.6 2.40001 17.2C2.70001 17.6 3.10001 18 3.50001 18.3C3.80001 18.5 4.10001 18.7 4.50001 18.9C4.70001 18.9 5.00001 19 5.30001 19C5.90001 18.9 6.9 18.1 7.70001 17.9C8.10001 17.8 8.50001 17.8 9.00001 17.9C9.70001 18 10.4 18.8 11.2 18.9C11.8 19 12.4 18.9 12.9 18.6C13.3 18.4 13.6 18.1 13.9 17.7C14.3 17.3 14.6 16.8 14.9 16.4C15.3 15.7 15.8 14.9 16 14.1C14.4 13.5 13.3 12 13.3 10.2Z" fill="white"/>
</svg>
