<svg width="20" height="16" viewBox="0 0 20 16" fill="none" xmlns="http://www.w3.org/2000/svg">
<path d="M1.99988 16C1.44988 16 0.979211 15.8043 0.587878 15.413C0.195878 15.021 -0.00012207 14.55 -0.00012207 14V2C-0.00012207 1.45 0.195878 0.979333 0.587878 0.588C0.979211 0.196 1.44988 0 1.99988 0H17.9999C18.5499 0 19.0209 0.196 19.4129 0.588C19.8042 0.979333 19.9999 1.45 19.9999 2V14C19.9999 14.55 19.8042 15.021 19.4129 15.413C19.0209 15.8043 18.5499 16 17.9999 16H1.99988ZM9.99988 8.825C10.0832 8.825 10.1705 8.81233 10.2619 8.787C10.3539 8.76233 10.4415 8.725 10.5249 8.675L17.5999 4.25C17.7332 4.16667 17.8332 4.06267 17.8999 3.938C17.9665 3.81267 17.9999 3.675 17.9999 3.525C17.9999 3.19167 17.8582 2.94167 17.5749 2.775C17.2915 2.60833 16.9999 2.61667 16.6999 2.8L9.99988 7L3.29988 2.8C2.99988 2.61667 2.70821 2.61233 2.42488 2.787C2.14154 2.96233 1.99988 3.20833 1.99988 3.525C1.99988 3.69167 2.03321 3.83733 2.09988 3.962C2.16654 4.08733 2.26654 4.18333 2.39988 4.25L9.47488 8.675C9.55821 8.725 9.64588 8.76233 9.73788 8.787C9.82921 8.81233 9.91654 8.825 9.99988 8.825Z" fill="black"/>
</svg>
