<svg width="24" height="24" viewBox="0 0 24 24" fill="none" xmlns="http://www.w3.org/2000/svg">
<path d="M12 0C5.3724 0 0 5.3724 0 12C0 18.6276 5.3724 24 12 24C18.6276 24 24 18.6276 24 12C24 5.3724 18.6276 0 12 0ZM12 22.2C10.6604 22.1999 9.33401 21.936 8.09645 21.4233C6.85888 20.9106 5.73442 20.1592 4.78726 19.2119C3.8401 18.2646 3.0888 17.1401 2.57624 15.9024C2.06369 14.6648 1.79992 13.3384 1.8 11.9988C1.80008 10.6592 2.064 9.33281 2.5767 8.09525C3.0894 6.85768 3.84084 5.73322 4.78811 4.78606C5.73538 3.8389 6.85993 3.0876 8.09755 2.57504C9.33518 2.06249 10.6616 1.79872 12.0012 1.7988C14.7066 1.79896 17.3011 2.87381 19.2139 4.78691C21.1268 6.70001 22.2014 9.29463 22.2012 12C22.201 14.7054 21.1262 17.2999 19.2131 19.2127C17.3 21.1256 14.7054 22.2002 12 22.2ZM12 12.6C8.3544 12.6 5.4 14.6736 5.4 16.8C5.4 18.9264 8.3544 21 12 21C15.6456 21 18.6 18.9264 18.6 16.8C18.6 14.6736 15.6456 12.6 12 12.6ZM12 12C12.9548 12 13.8705 11.6207 14.5456 10.9456C15.2207 10.2705 15.6 9.35478 15.6 8.4C15.6 7.44522 15.2207 6.52955 14.5456 5.85442C13.8705 5.17929 12.9548 4.8 12 4.8C11.0452 4.8 10.1295 5.17929 9.45442 5.85442C8.77928 6.52955 8.4 7.44522 8.4 8.4C8.4 9.35478 8.77928 10.2705 9.45442 10.9456C10.1295 11.6207 11.0452 12 12 12Z" fill="#828282"/>
</svg>
